<svg width="122" height="166" viewBox="0 0 122 166" fill="none" xmlns="http://www.w3.org/2000/svg">
<g id="Group">
<path id="Vector" d="M70.4646 2.64705C67.6409 1.27162 64.4719 0.5 61.1252 0.5C50.4956 0.5 41.6507 8.2864 39.9956 18.4552C39.8118 19.5793 39.7168 20.7327 39.7168 21.9084C39.7168 32.3533 47.2342 41.0738 57.1427 42.9456C58.4329 43.1889 59.7648 43.3168 61.1252 43.3168C62.3985 43.3168 63.6461 43.2049 64.859 42.9909C70.0952 42.0657 74.6806 39.2322 77.8674 35.2356C79.3565 33.37 80.5392 31.2514 81.342 28.9551C82.1136 26.7477 82.5336 24.376 82.5336 21.9084C82.5336 13.4507 77.6028 6.12159 70.4646 2.64705ZM78.3922 27.9917C77.7271 29.8742 76.7619 31.6163 75.5543 33.1604C72.934 36.5142 69.1726 38.9339 64.859 39.8307C63.6532 40.082 62.4047 40.2143 61.1252 40.2143C59.7577 40.2143 58.4249 40.0633 57.1427 39.7774C48.9568 37.9554 42.8193 30.6351 42.8193 21.9084C42.8193 20.5019 42.9791 19.1327 43.281 17.8158C45.1439 9.68581 52.4375 3.60249 61.1252 3.60249C63.3459 3.60249 65.4752 4.00029 67.4465 4.72751C74.4346 7.307 79.4311 14.0359 79.4311 21.9084C79.4311 24.0403 79.0653 26.088 78.3922 27.9917Z" fill="#888888"/>
<path id="Vector_2" d="M65.5767 26.6245H56.422C54.9746 26.6245 53.8008 27.7983 53.8008 29.2457V35.1683C53.8008 36.6156 54.9746 37.7895 56.422 37.7895H57.1412V46.692H64.8566V37.7895H65.5758C67.0232 37.7895 68.1971 36.6156 68.1971 35.1683V29.2457C68.1971 27.7983 67.0232 26.6245 65.5758 26.6245H65.5767Z" fill="url(#paint0_linear_25_5927)"/>
<g id="Group_2">
<path id="Vector_3" d="M86.3019 71.1492L90.5469 74.4502L107.732 52.3513L103.487 49.0503L86.3019 71.1492Z" fill="url(#paint1_linear_25_5927)"/>
<path id="Vector_4" d="M115.321 45.6654L108.095 40.0461C106.952 39.1574 105.305 39.3634 104.416 40.5062L100.781 45.1808C99.8924 46.3236 100.098 47.9705 101.241 48.8591L108.467 54.4784C109.61 55.3671 111.257 55.1611 112.146 54.0183L115.781 49.3437C116.669 48.2009 116.463 46.5541 115.321 45.6654Z" fill="url(#paint2_linear_25_5927)"/>
</g>
<g id="Group_3">
<path id="Vector_5" d="M18.5164 49.05L14.2715 52.351L31.4564 74.4499L35.7013 71.1488L18.5164 49.05Z" fill="url(#paint3_linear_25_5927)"/>
<path id="Vector_6" d="M13.5309 54.4772L20.757 48.8579C21.8998 47.9693 22.1058 46.3224 21.2171 45.1796L17.5819 40.505C16.6932 39.3622 15.0464 39.1562 13.9036 40.0449L6.67752 45.6642C5.53473 46.5529 5.32873 48.1997 6.21741 49.3425L9.85258 54.0171C10.7413 55.1599 12.3881 55.3659 13.5309 54.4772Z" fill="url(#paint4_linear_25_5927)"/>
</g>
<g id="Group 37190">
<path id="Vector_7" d="M61.0007 165.5C94.2439 165.5 121.193 138.551 121.193 105.308C121.193 72.0647 94.2439 45.1158 61.0007 45.1158C27.7575 45.1158 0.808594 72.0647 0.808594 105.308C0.808594 138.551 27.7575 165.5 61.0007 165.5Z" fill="#6D6D6D"/>
<path id="Vector_8" d="M60.9995 159.915C91.1581 159.915 115.606 135.466 115.606 105.308C115.606 75.1493 91.1581 50.7009 60.9995 50.7009C30.8409 50.7009 6.39258 75.1493 6.39258 105.308C6.39258 135.466 30.8409 159.915 60.9995 159.915Z" fill="url(#paint5_radial_25_5927)"/>
<path id="Vector_9" d="M60.4258 107.644V102.896L101.279 104.621V105.92L60.4258 107.644Z" fill="#1E437A"/>
<path id="Vector_10" d="M62.5513 104.744L57.8488 105.405L54.6797 70.4639L55.9663 70.2837L62.5513 104.744Z" fill="#1E437A"/>
<path id="Vector_11" d="M64.6855 105.351C64.6029 110.161 57.4469 110.161 57.3652 105.351C57.4478 100.54 64.6038 100.541 64.6855 105.351Z" fill="url(#paint6_linear_25_5927)"/>
<path id="Vector_12" d="M61.0011 51.1974H59.7598V59.3888H61.0011V51.1974Z" fill="#5D5D5D"/>
<path id="Vector_13" d="M33.9266 58.4645L32.8516 59.0852L36.9472 66.1791L38.0223 65.5584L33.9266 58.4645Z" fill="#5D5D5D"/>
<path id="Vector_14" d="M14.1148 78.2955L13.4941 79.3705L20.588 83.4662L21.2087 82.3912L14.1148 78.2955Z" fill="#5D5D5D"/>
<path id="Vector_15" d="M6.87305 105.375V106.617H15.0644V105.375H6.87305Z" fill="#5D5D5D"/>
<path id="Vector_16" d="M14.1391 132.449L14.7598 133.524L21.8536 129.428L21.233 128.353L14.1391 132.449Z" fill="#5D5D5D"/>
<path id="Vector_17" d="M33.9699 152.261L35.0449 152.882L39.1406 145.788L38.0655 145.167L33.9699 152.261Z" fill="#5D5D5D"/>
<path id="Vector_18" d="M61.0497 159.504H62.291V151.313H61.0497V159.504Z" fill="#5D5D5D"/>
<path id="Vector_19" d="M88.1222 152.237L89.1973 151.616L85.1016 144.522L84.0266 145.143L88.1222 152.237Z" fill="#5D5D5D"/>
<path id="Vector_20" d="M107.936 132.407L108.557 131.332L101.463 127.237L100.842 128.312L107.936 132.407Z" fill="#5D5D5D"/>
<path id="Vector_21" d="M115.18 105.326V104.085H106.988V105.326H115.18Z" fill="#5D5D5D"/>
<path id="Vector_22" d="M107.912 78.253L107.291 77.1779L100.197 81.2736L100.818 82.3486L107.912 78.253Z" fill="#5D5D5D"/>
<path id="Vector_23" d="M88.0809 58.4413L87.0059 57.8206L82.9102 64.9145L83.9852 65.5352L88.0809 58.4413Z" fill="#5D5D5D"/>
</g>
</g>
<defs>
<linearGradient id="paint0_linear_25_5927" x1="60.9989" y1="26.6245" x2="60.9989" y2="46.692" gradientUnits="userSpaceOnUse">
<stop stop-color="#46468E"/>
<stop offset="1" stop-color="#242449"/>
</linearGradient>
<linearGradient id="paint1_linear_25_5927" x1="88.4244" y1="72.7997" x2="105.609" y2="50.7008" gradientUnits="userSpaceOnUse">
<stop stop-color="#46468E"/>
<stop offset="1" stop-color="#27274F"/>
</linearGradient>
<linearGradient id="paint2_linear_25_5927" x1="114.085" y1="51.5245" x2="105.154" y2="40.7756" gradientUnits="userSpaceOnUse">
<stop stop-color="#46468E"/>
<stop offset="1" stop-color="#25254B"/>
</linearGradient>
<linearGradient id="paint3_linear_25_5927" x1="24.9334" y1="48.9555" x2="18.6288" y2="48.0709" gradientUnits="userSpaceOnUse">
<stop stop-color="#46468E"/>
<stop offset="1" stop-color="#26264C"/>
</linearGradient>
<linearGradient id="paint4_linear_25_5927" x1="19.9316" y1="43.5266" x2="8.38786" y2="59.0476" gradientUnits="userSpaceOnUse">
<stop stop-color="#46468E"/>
<stop offset="1" stop-color="#141428"/>
</linearGradient>
<radialGradient id="paint5_radial_25_5927" cx="0" cy="0" r="1" gradientUnits="userSpaceOnUse" gradientTransform="translate(61.103 99.5271) rotate(90) scale(98.7563)">
<stop offset="0.155" stop-color="#FCFCFC"/>
<stop offset="0.455" stop-color="#E8E8E8"/>
<stop offset="1" stop-color="#C5C4C4"/>
</radialGradient>
<linearGradient id="paint6_linear_25_5927" x1="62.6672" y1="104.318" x2="57.3652" y2="108.46" gradientUnits="userSpaceOnUse">
<stop stop-color="#E0DFDF"/>
<stop offset="1" stop-color="#7A7979"/>
</linearGradient>
</defs>
</svg>
