<svg width="342" height="265" viewBox="0 0 342 265" fill="none" xmlns="http://www.w3.org/2000/svg">
<path d="M233.72 30.5421V208.849C233.72 219.057 225.434 227.342 215.227 227.342H127.688C117.481 227.342 109.195 219.057 109.195 208.849L109.195 30.5421C109.195 20.3348 117.481 12.049 127.688 12.049L215.231 12.049C225.438 12.049 233.724 20.3348 233.724 30.5421H233.72Z" fill="#202020"/>
<path d="M127.687 13.8024H215.23C224.469 13.8024 231.969 21.3028 231.969 30.5423V208.85C231.969 218.089 224.469 225.589 215.23 225.589H127.687C118.448 225.589 110.947 218.089 110.947 208.85V30.5423C110.947 21.3028 118.448 13.8024 127.687 13.8024Z" fill="#333333"/>
<path d="M233.523 61.4866V41.1491C234.684 41.1491 235.627 42.0923 235.627 43.253V59.3827C235.627 60.5434 234.684 61.4866 233.523 61.4866Z" fill="#202020"/>
<path d="M109.42 82.6977V62.3602C108.259 62.3602 107.316 63.3035 107.316 64.4641V80.5938C107.316 81.7545 108.259 82.6977 109.42 82.6977Z" fill="#202020"/>
<path d="M109.42 103.909V83.5714C108.259 83.5714 107.316 84.5147 107.316 85.6753V101.805C107.316 102.966 108.259 103.909 109.42 103.909Z" fill="#202020"/>
<path d="M110.256 54.4712V40.684C109.086 40.684 108.135 41.3234 108.135 42.1102V53.045C108.135 53.8318 109.086 54.4712 110.256 54.4712Z" fill="#202020"/>
<rect x="115.986" y="31.0475" width="112.686" height="174.778" rx="2" fill="#FFF9E6"/>
<mask id="mask0_1257_9406" style="mask-type:alpha" maskUnits="userSpaceOnUse" x="115" y="35" width="114" height="171">
<rect x="115.986" y="35.647" width="112.686" height="170.179" rx="2" fill="#FFF9E6"/>
</mask>
<g mask="url(#mask0_1257_9406)">
<path d="M222.018 96.1288C222.018 94.2244 221.078 92.5547 219.644 91.5112C221.705 90.3373 223.113 88.1459 223.113 85.5892C223.113 82.8761 221.496 80.5281 219.2 79.4324C220.896 78.1802 221.992 76.1975 221.992 73.9279C221.992 70.406 219.304 67.5102 215.861 67.145C216.2 66.2319 216.435 65.2405 216.435 64.197C216.435 59.6577 212.756 55.9532 208.191 55.9532C206.208 55.9532 204.434 56.6837 202.999 57.8315C203.234 57.2054 203.365 56.5532 203.365 55.8488C203.365 52.6661 200.782 50.1095 197.625 50.1095C196.895 50.1095 196.217 50.266 195.59 50.5008C194.99 47.5007 192.329 45.2571 189.147 45.2571C187.555 45.2571 186.12 45.831 184.973 46.7702C183.642 44.3701 181.112 42.7526 178.164 42.7526C176.833 42.7526 175.607 43.1179 174.511 43.6918C172.946 42.2831 170.911 41.3961 168.641 41.3961C164.989 41.3961 161.885 43.6135 160.554 46.7702C158.963 45.4919 156.98 44.7092 154.789 44.7092C150.484 44.7092 146.91 47.6572 145.893 51.6226C144.145 51.0226 142.24 50.8138 140.284 51.1791C134.257 52.327 130.292 58.1185 131.44 64.1448C131.596 65.0318 131.909 65.8667 132.275 66.6493C131.518 66.571 130.736 66.5449 129.953 66.7015C125.753 67.4841 122.987 71.5539 123.77 75.7279C124.135 77.6845 125.231 79.302 126.666 80.3977C123.848 81.963 122.205 85.1979 122.831 88.5633C123.326 91.1199 124.996 93.1287 127.188 94.1461C125.57 95.6331 124.709 97.8767 125.153 100.199C125.544 102.207 126.796 103.799 128.466 104.712C127.135 106.068 126.483 107.999 126.848 110.008C127.318 112.434 129.196 114.26 131.466 114.73C130.918 115.956 130.736 117.338 130.996 118.773C131.544 121.695 133.866 123.808 136.631 124.278C136.631 124.487 136.631 124.721 136.684 124.93C137.258 127.982 140.205 129.965 143.232 129.391C143.232 129.704 143.232 129.991 143.31 130.304C143.806 132.887 146.284 134.557 148.841 134.087C149.388 133.983 149.91 133.774 150.354 133.487C151.397 134.765 152.963 135.626 154.737 135.626C155.024 135.626 155.31 135.574 155.597 135.548C156.589 137.165 158.363 138.235 160.398 138.235C162.276 138.235 163.946 137.296 164.963 135.887C165.98 137.296 167.65 138.235 169.528 138.235C171.407 138.235 173.076 137.296 174.094 135.887C175.111 137.296 176.781 138.235 178.659 138.235C180.538 138.235 182.207 137.296 183.225 135.887C184.242 137.296 185.912 138.235 187.79 138.235C190.581 138.235 192.877 136.2 193.347 133.539C193.921 133.748 194.547 133.878 195.199 133.878C198.33 133.878 200.86 131.348 200.86 128.217C200.86 128.061 200.834 127.878 200.808 127.721C201.695 128.295 202.765 128.661 203.912 128.661C207.043 128.661 209.574 126.13 209.574 123C209.574 122.817 209.548 122.634 209.521 122.478C209.835 122.53 210.121 122.582 210.434 122.582C213.33 122.582 215.652 120.234 215.652 117.364C215.652 115.93 215.078 114.651 214.165 113.712C217.635 112.643 220.165 109.434 220.165 105.625C220.165 103.981 219.67 102.468 218.887 101.19C220.635 100.199 221.835 98.3463 221.835 96.181L222.018 96.1288Z" fill="#2A2A2A"/>
<path d="M242.471 301.912L232.636 176.089C230.914 167.402 225.514 160.306 214.87 158.845L198.747 155.401L195.852 154.775C191.443 153.836 188.182 150.001 187.999 145.488L187.634 137.792L187.399 132.914H157.293L157.059 137.792L156.693 145.488C156.485 150.001 153.25 153.81 148.815 154.775L145.919 155.401L129.797 158.845C119.153 160.332 113.752 167.402 112.031 176.089L102.195 301.912V329.904C102.195 329.904 101.83 338.331 106.37 338.722C106.813 338.748 107.204 338.748 107.596 338.774C110.283 338.905 111.222 335.566 111.352 332.774L112.187 313.86C112.239 312.921 113.022 312.165 113.935 312.217C114.848 312.269 115.553 313.052 115.527 314.017L115.213 321.243C115.135 322.887 116.387 324.296 117.979 324.348C119.57 324.426 120.927 323.148 121.005 321.478L121.605 310.73C121.709 308.486 122.231 304.729 119.831 301.26L116.961 298.364L130.005 207.682L130.084 207.969L133.606 226.544C137.519 249.449 137.127 253.075 132.771 267.371L126.692 286.468C124.266 294.738 124.266 310.547 124.266 310.547L126.718 353.462H126.744L133.214 465.406L158.598 464.962L165.929 353.436L167.937 325.313C167.937 325.313 168.72 321.295 169.398 320.434C170.885 318.53 173.885 318.687 175.216 320.434C175.868 321.295 176.677 325.313 176.677 325.313L178.686 353.436L185.99 464.962L211.374 465.406L217.844 353.462H217.87L220.322 310.547C220.322 310.547 220.322 294.738 217.896 286.468L211.974 267.684C208.217 255.032 206.861 249.475 210.983 226.57L214.505 207.995L214.583 207.682L227.627 298.364L224.757 301.26C222.357 304.729 222.879 308.486 222.983 310.73L223.583 321.478C223.661 323.122 225.018 324.4 226.609 324.348C228.201 324.269 229.453 322.887 229.375 321.243L229.062 314.017C229.01 313.078 229.74 312.269 230.653 312.217C231.566 312.191 232.349 312.921 232.401 313.86L233.236 332.774C233.366 335.566 234.305 338.905 236.993 338.774C237.384 338.774 237.775 338.774 238.219 338.722C242.758 338.331 242.367 329.904 242.367 329.904V301.912H242.471Z" fill="url(#paint0_linear_1257_9406)"/>
<path d="M187.765 140.296L187.66 137.792L187.426 132.914H157.32L157.085 137.792L157.007 139.696C160.268 143.349 165.433 147.158 172.686 147.158C179.469 147.158 184.373 143.871 187.739 140.296H187.765Z" fill="#9D5612"/>
<path d="M172.711 74.0325L149.623 74.1369V116.295C149.623 118.565 150.98 125.269 152.597 127.983C152.597 127.983 158.78 141.992 172.711 141.992C187.607 141.992 193.608 126.156 193.608 126.156C194.625 123.73 195.747 117.704 195.825 116.321V74.1369L172.737 74.0325H172.711Z" fill="url(#paint1_linear_1257_9406)"/>
<path d="M200.391 66.9108H146.258L147.197 89.503H147.249C147.484 91.877 149.467 93.7293 151.919 93.7293C153.484 93.7293 154.867 92.9466 155.702 91.7988C156.797 93.3901 158.65 94.4598 160.737 94.4598C163.58 94.4598 165.954 92.5032 166.659 89.8683C167.52 90.39 168.511 90.7031 169.581 90.7031C172.633 90.7031 175.085 88.2769 175.215 85.2507C175.842 85.4855 176.52 85.642 177.25 85.642C180.25 85.642 182.729 83.3723 183.068 80.4505C183.929 81.3375 185.103 81.8853 186.433 81.8853C187.555 81.8853 188.599 81.4679 189.407 80.7896C188.781 81.6766 188.416 82.7201 188.416 83.8941C188.416 86.5029 190.242 88.6682 192.695 89.19C192.877 91.2248 194.573 92.8423 196.66 92.8423C198.643 92.8423 200.26 91.4075 200.599 89.5291L200.443 66.9629L200.391 66.9108Z" fill="#2A2A2A"/>
<path d="M212.053 267.736C211.818 266.98 211.609 266.249 211.401 265.545C209.183 258.136 208.244 253.544 208.557 246.631C208.713 241.57 209.47 235.361 211.061 226.621L214.662 207.76L214.74 208.308L234.593 201.029L232.636 176.115C230.914 167.428 225.514 160.332 214.87 158.871L207.279 157.253L203.052 156.34C203.078 156.94 203.131 157.54 203.131 158.166C203.131 175.15 189.356 188.95 172.347 188.95C155.337 188.95 141.563 175.176 141.563 158.166C141.563 157.566 141.615 156.966 141.667 156.366L129.875 158.897C119.231 160.384 113.831 167.454 112.109 176.141L110.101 201.812L129.928 209.064L130.11 207.812L130.188 208.099L130.397 209.221L130.449 209.56C130.449 209.56 130.449 209.56 130.449 209.612L131.388 214.621L133.658 226.674C137.571 249.579 137.18 253.205 132.823 267.501L126.745 286.598C126.588 287.094 126.458 287.641 126.327 288.215C126.275 288.398 126.249 288.633 126.197 288.815C126.119 289.181 126.04 289.546 125.962 289.937L170.938 290.198V290.407L218.731 290.12C218.497 288.868 218.236 287.668 217.923 286.598L212.001 267.814L212.053 267.736Z" fill="white"/>
</g>
<path fill-rule="evenodd" clip-rule="evenodd" d="M117.986 31.0475C116.882 31.0475 115.986 31.943 115.986 33.0475V203.826C115.986 204.93 116.882 205.826 117.986 205.826H226.672C227.777 205.826 228.672 204.93 228.672 203.826V33.0475C228.672 31.943 227.777 31.0475 226.672 31.0475H117.986ZM172.904 160.981C197.354 160.981 217.174 135.241 217.174 103.489C217.174 71.7362 197.354 45.9958 172.904 45.9958C148.455 45.9958 128.635 71.7362 128.635 103.489C128.635 135.241 148.455 160.981 172.904 160.981Z" fill="black" fill-opacity="0.6"/>
<path fill-rule="evenodd" clip-rule="evenodd" d="M172.904 158.981C195.795 158.981 215.174 134.654 215.174 103.488C215.174 72.3232 195.795 47.9957 172.904 47.9957C150.014 47.9957 130.635 72.3232 130.635 103.488C130.635 134.654 150.014 158.981 172.904 158.981ZM172.904 160.981C197.354 160.981 217.174 135.241 217.174 103.488C217.174 71.7361 197.354 45.9957 172.904 45.9957C148.455 45.9957 128.635 71.7361 128.635 103.488C128.635 135.241 148.455 160.981 172.904 160.981Z" fill="white" fill-opacity="0.6"/>
<rect x="115.986" y="190.878" width="112.686" height="14.9481" fill="#4D4D4D" fill-opacity="0.6"/>
<rect x="115.986" y="29.8976" width="112.686" height="10.3487" fill="#4D4D4D" fill-opacity="0.6"/>
<path d="M76.3591 178.734L109.225 143.273V180.896C109.225 180.175 110.426 178.734 112.252 175.274C120.469 159.706 126.09 162.733 129.117 163.598C136.469 167.49 132.483 176.571 131.185 178.734C127.293 185.653 123.063 198.194 120.469 208.14C118.739 218.173 106.774 234.807 102.738 239.276V252.951H68.5751V239.276C68.4309 230.627 70.643 204.248 72.0346 194.302C73.3325 185.026 74.6293 180.031 76.3591 178.734Z" fill="url(#paint2_linear_1257_9406)"/>
<path d="M101.777 197.329L109.129 165.76V180.464C105.323 185.999 102.642 194.014 101.777 197.329Z" fill="#9D5612"/>
<path d="M265.642 178.734L232.776 143.273V180.896C232.776 180.175 231.575 178.734 229.749 175.274C221.532 159.706 215.911 162.733 212.884 163.598C205.532 167.49 209.518 176.571 210.816 178.734C214.708 185.653 218.938 198.194 221.532 208.14C223.262 218.173 235.227 234.807 239.263 239.276V252.951H273.426V239.276C273.57 230.627 271.358 204.248 269.966 194.302C268.669 185.026 267.372 180.031 265.642 178.734Z" fill="url(#paint3_linear_1257_9406)"/>
<path d="M240.224 197.329L232.872 165.76V180.464C236.678 185.999 239.359 194.014 240.224 197.329Z" fill="#9D5612"/>
<defs>
<linearGradient id="paint0_linear_1257_9406" x1="173.068" y1="104.154" x2="173.068" y2="316.793" gradientUnits="userSpaceOnUse">
<stop stop-color="#B67A43"/>
<stop offset="0.301116" stop-color="#FFBF85"/>
</linearGradient>
<linearGradient id="paint1_linear_1257_9406" x1="126.553" y1="-2.16531" x2="172.724" y2="141.992" gradientUnits="userSpaceOnUse">
<stop offset="0.0406256" stop-color="#B57A43"/>
<stop offset="0.846898" stop-color="#FFBF85"/>
</linearGradient>
<linearGradient id="paint2_linear_1257_9406" x1="314.11" y1="31.7023" x2="-111.416" y2="365.55" gradientUnits="userSpaceOnUse">
<stop offset="0.306085" stop-color="#7F4712"/>
<stop offset="0.457914" stop-color="#FFBF85"/>
<stop offset="0.737239" stop-color="#7F4712"/>
</linearGradient>
<linearGradient id="paint3_linear_1257_9406" x1="27.8913" y1="31.7023" x2="453.417" y2="365.55" gradientUnits="userSpaceOnUse">
<stop offset="0.306085" stop-color="#7F4712"/>
<stop offset="0.457914" stop-color="#FFBF85"/>
<stop offset="0.737239" stop-color="#7F4712"/>
</linearGradient>
</defs>
</svg>
