<svg width="28" height="28" viewBox="0 0 28 28" fill="none" xmlns="http://www.w3.org/2000/svg">
    <mask id="mask0_1385_9064" style="mask-type:alpha" maskUnits="userSpaceOnUse" x="0" y="0" width="28" height="28">
        <rect width="28" height="28" fill="#D9D9D9" />
    </mask>
    <g mask="url(#mask0_1385_9064)">
        <path
            d="M13.9982 5.25C16.4405 5.25 18.5097 6.09749 20.2058 7.79246C21.9019 9.48743 22.75 11.556 22.75 13.9982C22.75 16.4405 21.9025 18.5097 20.2075 20.2058C18.5126 21.9019 16.444 22.75 14.0017 22.75C11.5595 22.75 9.49035 21.9025 7.79421 20.2075C6.09807 18.5126 5.25 16.444 5.25 14.0017C5.25 11.5595 6.09749 9.49035 7.79246 7.79421C9.48743 6.09807 11.556 5.25 13.9982 5.25ZM14 21C15.9444 21 17.5972 20.3194 18.9583 18.9583C20.3194 17.5972 21 15.9444 21 14C21 12.0556 20.3194 10.4028 18.9583 9.04167C17.5972 7.68056 15.9444 7 14 7C12.0556 7 10.4028 7.68056 9.04167 9.04167C7.68056 10.4028 7 12.0556 7 14C7 15.9444 7.68056 17.5972 9.04167 18.9583C10.4028 20.3194 12.0556 21 14 21ZM10.0739 11.6687C10.0739 11.968 10.1751 12.2182 10.3775 12.4195C10.5799 12.6205 10.8308 12.721 11.1303 12.721C11.4295 12.721 11.6798 12.6198 11.881 12.4174C12.0821 12.215 12.1826 11.9641 12.1826 11.6646C12.1826 11.3654 12.0814 11.1151 11.879 10.9139C11.6766 10.7128 11.4257 10.6123 11.1262 10.6123C10.827 10.6123 10.5767 10.7135 10.3755 10.9159C10.1744 11.1183 10.0739 11.3693 10.0739 11.6687ZM15.8174 11.6687C15.8174 11.968 15.9186 12.2182 16.121 12.4195C16.3234 12.6205 16.5743 12.721 16.8738 12.721C17.173 12.721 17.4233 12.6198 17.6245 12.4174C17.8256 12.215 17.9261 11.9641 17.9261 11.6646C17.9261 11.3654 17.8249 11.1151 17.6225 10.9139C17.4201 10.7128 17.1692 10.6123 16.8697 10.6123C16.5705 10.6123 16.3202 10.7135 16.119 10.9159C15.9179 11.1183 15.8174 11.3693 15.8174 11.6687ZM1.75 6.125V3.85904C1.75 3.27901 1.9565 2.7825 2.3695 2.3695C2.7825 1.9565 3.27901 1.75 3.85904 1.75H6.125C6.37292 1.75 6.58078 1.8339 6.74858 2.00171C6.91619 2.16951 7 2.37738 7 2.62529C7 2.8734 6.91619 3.08117 6.74858 3.24858C6.58078 3.41619 6.37292 3.5 6.125 3.5H3.85904C3.75424 3.5 3.66819 3.53364 3.60092 3.60092C3.53364 3.6682 3.5 3.75424 3.5 3.85904V6.125C3.5 6.37292 3.4161 6.58078 3.24829 6.74858C3.08049 6.91619 2.87262 7 2.62471 7C2.3766 7 2.16883 6.91619 2.00142 6.74858C1.83381 6.58078 1.75 6.37292 1.75 6.125ZM6.125 26.25H3.85904C3.27901 26.25 2.7825 26.0435 2.3695 25.6305C1.9565 25.2175 1.75 24.721 1.75 24.141V21.875C1.75 21.6271 1.8339 21.4192 2.00171 21.2514C2.16951 21.0838 2.37738 21 2.62529 21C2.8734 21 3.08117 21.0838 3.24858 21.2514C3.41619 21.4192 3.5 21.6271 3.5 21.875V24.141C3.5 24.2458 3.53364 24.3318 3.60092 24.3991C3.66819 24.4664 3.75424 24.5 3.85904 24.5H6.125C6.37292 24.5 6.58078 24.5839 6.74858 24.7517C6.91619 24.9195 7 25.1274 7 25.3753C7 25.6234 6.91619 25.8312 6.74858 25.9986C6.58078 26.1662 6.37292 26.25 6.125 26.25ZM24.141 26.1377H21.875C21.6271 26.1377 21.4192 26.0538 21.2514 25.886C21.0838 25.7182 21 25.5103 21 25.2624C21 25.0143 21.0838 24.8065 21.2514 24.6391C21.4192 24.4715 21.6271 24.3877 21.875 24.3877H24.141C24.2458 24.3877 24.3318 24.3541 24.3991 24.2868C24.4664 24.2195 24.5 24.1335 24.5 24.0287V21.7627C24.5 21.5148 24.5839 21.307 24.7517 21.1394C24.9195 20.9716 25.1274 20.8877 25.3753 20.8877C25.6234 20.8877 25.8312 20.9716 25.9986 21.1394C26.1662 21.307 26.25 21.5148 26.25 21.7627V24.0287C26.25 24.6087 26.0435 25.1052 25.6305 25.5182C25.2175 25.9312 24.721 26.1377 24.141 26.1377ZM24.5 6.125V3.85904C24.5 3.75424 24.4664 3.6682 24.3991 3.60092C24.3318 3.53364 24.2458 3.5 24.141 3.5H21.875C21.6271 3.5 21.4192 3.4161 21.2514 3.24829C21.0838 3.08049 21 2.87262 21 2.62471C21 2.3766 21.0838 2.16883 21.2514 2.00142C21.4192 1.83381 21.6271 1.75 21.875 1.75H24.141C24.721 1.75 25.2175 1.9565 25.6305 2.3695C26.0435 2.7825 26.25 3.27901 26.25 3.85904V6.125C26.25 6.37292 26.1661 6.58078 25.9983 6.74858C25.8305 6.91619 25.6226 7 25.3747 7C25.1266 7 24.9188 6.91619 24.7514 6.74858C24.5838 6.58078 24.5 6.37292 24.5 6.125ZM14 17.859C14.694 17.859 15.342 17.699 15.944 17.379C16.546 17.0587 17.0414 16.6197 17.4303 16.0618C17.5396 15.8629 17.5385 15.664 17.4271 15.465C17.3157 15.2661 17.1411 15.1667 16.9032 15.1667H11.0968C10.8589 15.1667 10.6843 15.2661 10.5729 15.465C10.4615 15.664 10.4604 15.8629 10.5697 16.0618C10.9586 16.6197 11.454 17.0587 12.056 17.379C12.658 17.699 13.306 17.859 14 17.859Z"
            fill="#2A5595" />
    </g>
</svg>