<svg width="24" height="22" viewBox="0 0 24 22" fill="none" xmlns="http://www.w3.org/2000/svg">
<path id="sms" d="M7.33464 10.6985C7.62027 10.6985 7.86372 10.598 8.06497 10.397C8.26603 10.1957 8.36655 9.95226 8.36655 9.66663C8.36655 9.38099 8.26603 9.13754 8.06497 8.93629C7.86372 8.73524 7.62027 8.63471 7.33464 8.63471C7.049 8.63471 6.80555 8.73524 6.6043 8.93629C6.40325 9.13754 6.30272 9.38099 6.30272 9.66663C6.30272 9.95226 6.40325 10.1957 6.6043 10.397C6.80555 10.598 7.049 10.6985 7.33464 10.6985ZM12.0013 10.6985C12.2869 10.6985 12.5304 10.598 12.7316 10.397C12.9327 10.1957 13.0332 9.95226 13.0332 9.66663C13.0332 9.38099 12.9327 9.13754 12.7316 8.93629C12.5304 8.73524 12.2869 8.63471 12.0013 8.63471C11.7157 8.63471 11.4722 8.73524 11.271 8.93629C11.0699 9.13754 10.9694 9.38099 10.9694 9.66663C10.9694 9.95226 11.0699 10.1957 11.271 10.397C11.4722 10.598 11.7157 10.6985 12.0013 10.6985ZM16.668 10.6985C16.9536 10.6985 17.1971 10.598 17.3983 10.397C17.5994 10.1957 17.6999 9.95226 17.6999 9.66663C17.6999 9.38099 17.5994 9.13754 17.3983 8.93629C17.1971 8.73524 16.9536 8.63471 16.668 8.63471C16.3823 8.63471 16.1389 8.73524 15.9376 8.93629C15.7366 9.13754 15.6361 9.38099 15.6361 9.66663C15.6361 9.95226 15.7366 10.1957 15.9376 10.397C16.1389 10.598 16.3823 10.6985 16.668 10.6985ZM5.04622 18.4166L2.71055 20.752C2.37864 21.0841 1.99684 21.1594 1.56518 20.9777C1.1337 20.7959 0.917969 20.4687 0.917969 19.996V3.02567C0.917969 2.43631 1.12214 1.93746 1.53047 1.52913C1.9388 1.12079 2.43765 0.916626 3.02701 0.916626H20.9756C21.565 0.916626 22.0638 1.12079 22.4721 1.52913C22.8805 1.93746 23.0846 2.43631 23.0846 3.02567V16.3076C23.0846 16.8969 22.8805 17.3958 22.4721 17.8041C22.0638 18.2125 21.565 18.4166 20.9756 18.4166H5.04622ZM4.3013 16.6666H20.9756C21.0654 16.6666 21.1477 16.6292 21.2223 16.5543C21.2972 16.4797 21.3346 16.3974 21.3346 16.3076V3.02567C21.3346 2.93583 21.2972 2.85358 21.2223 2.77892C21.1477 2.70406 21.0654 2.66663 20.9756 2.66663H3.02701C2.93718 2.66663 2.85493 2.70406 2.78026 2.77892C2.7054 2.85358 2.66797 2.93583 2.66797 3.02567V18.2822L4.3013 16.6666Z" fill="#2A5595"/>
</svg>
