<svg width="18" height="24" viewBox="0 0 18 24" fill="none" xmlns="http://www.w3.org/2000/svg">
    <path id="lightbulb"
        d="M8.9987 23.1731C8.40934 23.1731 7.90116 22.969 7.47416 22.5606C7.04716 22.1523 6.81499 21.6534 6.77766 21.0641H11.2197C11.1824 21.6534 10.9502 22.1523 10.5232 22.5606C10.0962 22.969 9.58806 23.1731 8.9987 23.1731ZM5.4987 19.4485C5.25039 19.4485 5.04253 19.3648 4.87511 19.1974C4.7075 19.0298 4.6237 18.8218 4.6237 18.5735C4.6237 18.3252 4.7075 18.1174 4.87511 17.95C5.04253 17.7823 5.25039 17.6985 5.4987 17.6985H12.4987C12.747 17.6985 12.9549 17.7823 13.1223 17.95C13.2899 18.1174 13.3737 18.3252 13.3737 18.5735C13.3737 18.8218 13.2899 19.0298 13.1223 19.1974C12.9549 19.3648 12.747 19.4485 12.4987 19.4485H5.4987ZM4.80307 16.0833C3.58118 15.3234 2.61392 14.3306 1.90128 13.1048C1.18845 11.8792 0.832031 10.5387 0.832031 9.08329C0.832031 6.80985 1.62478 4.88038 3.21028 3.29488C4.79578 1.70938 6.72525 0.916626 8.9987 0.916626C11.2721 0.916626 13.2016 1.70938 14.7871 3.29488C16.3726 4.88038 17.1654 6.80985 17.1654 9.08329C17.1654 10.5387 16.8089 11.8792 16.0961 13.1048C15.3835 14.3306 14.4162 15.3234 13.1943 16.0833H4.80307ZM5.3237 14.3333H12.6737C13.5487 13.7111 14.2244 12.943 14.7008 12.0291C15.1772 11.1152 15.4154 10.1333 15.4154 9.08329C15.4154 7.2944 14.7931 5.77774 13.5487 4.53329C12.3043 3.28885 10.7876 2.66663 8.9987 2.66663C7.20981 2.66663 5.69314 3.28885 4.4487 4.53329C3.20425 5.77774 2.58203 7.2944 2.58203 9.08329C2.58203 10.1333 2.82023 11.1152 3.29661 12.0291C3.773 12.943 4.4487 13.7111 5.3237 14.3333Z"
        fill="#2A5595" />
</svg>