<svg width="24" height="12" viewBox="0 0 24 12" fill="none" xmlns="http://www.w3.org/2000/svg">
<path id="eyeglasses" d="M6.34065 9.52246C6.95101 9.52246 7.50187 9.34367 7.99323 8.98608C8.48459 8.62869 8.83119 8.16057 9.03302 7.58171L9.43698 6.3185C9.75548 5.3628 9.67206 4.48372 9.18673 3.68125C8.7014 2.87878 8.01005 2.47754 7.11269 2.47754H2.97773L3.5319 7.04562C3.62912 7.74854 3.94285 8.33703 4.4731 8.81108C5.00316 9.28533 5.62567 9.52246 6.34065 9.52246ZM17.662 9.52246C18.377 9.52246 18.9995 9.28533 19.5295 8.81108C20.0598 8.33703 20.3735 7.74854 20.4707 7.04562L21.0249 2.47754H16.9191C16.0217 2.47754 15.3285 2.88179 14.8395 3.69029C14.3503 4.4986 14.265 5.38069 14.5837 6.33658L14.9696 7.58171C15.1714 8.16057 15.518 8.62869 16.0094 8.98608C16.5008 9.34367 17.0516 9.52246 17.662 9.52246ZM6.34065 11.2725C5.19206 11.2725 4.18513 10.8925 3.31985 10.1326C2.45458 9.37274 1.95165 8.41471 1.81106 7.25854L1.20965 2.47754H1.00781C0.759507 2.47754 0.551549 2.39383 0.383938 2.22641C0.216521 2.0588 0.132812 1.85084 0.132812 1.60254C0.132812 1.35423 0.216521 1.14637 0.383938 0.978956C0.551549 0.811344 0.759507 0.727539 1.00781 0.727539H7.11269C7.87841 0.727539 8.58434 0.92354 9.23048 1.31554C9.87662 1.70735 10.3927 2.2443 10.7786 2.92641H13.2531C13.6391 2.2443 14.1552 1.70735 14.8013 1.31554C15.4475 0.92354 16.1534 0.727539 16.9191 0.727539H22.9948C23.2431 0.727539 23.4511 0.811344 23.6187 0.978956C23.7861 1.14637 23.8698 1.35423 23.8698 1.60254C23.8698 1.85084 23.7861 2.0588 23.6187 2.22641C23.4511 2.39383 23.2431 2.47754 22.9948 2.47754H22.793L22.1916 7.25854C22.051 8.41471 21.548 9.37274 20.6828 10.1326C19.8175 10.8925 18.8106 11.2725 17.662 11.2725C16.6658 11.2725 15.7721 10.9883 14.9807 10.4199C14.1895 9.85156 13.6339 9.09847 13.3138 8.16067L12.9099 6.91525C12.8636 6.75678 12.821 6.5915 12.7821 6.41942C12.7432 6.24753 12.7043 5.99553 12.6654 5.66341H11.3372C11.2983 5.95664 11.2594 6.19114 11.2205 6.36692C11.1816 6.5425 11.139 6.70962 11.0928 6.86829L10.6888 8.1315C10.3761 9.0693 9.82237 9.82725 9.02748 10.4053C8.2324 10.9834 7.33679 11.2725 6.34065 11.2725Z" fill="#2A5595"/>
</svg>
