<svg width="342" height="190" viewBox="0 0 342 190" fill="none" xmlns="http://www.w3.org/2000/svg">
<path d="M22.5 147.25C22.5 145.041 24.2909 143.25 26.5 143.25H315.5C317.709 143.25 319.5 145.041 319.5 147.25V152.25H22.5V147.25Z" fill="#D1D1D1"/>
<path d="M113.5 140.25H124.5V141.25C124.5 142.355 123.605 143.25 122.5 143.25H115.5C114.395 143.25 113.5 142.355 113.5 141.25V140.25Z" fill="#3D3D3D"/>
<path d="M220.5 140.25H231.5V141.25C231.5 142.355 230.605 143.25 229.5 143.25H222.5C221.395 143.25 220.5 142.355 220.5 141.25V140.25Z" fill="#3D3D3D"/>
<path fill-rule="evenodd" clip-rule="evenodd" d="M108.376 37.8502C109.426 37.5054 110.556 38.0766 110.901 39.126L133.901 109.126C134.245 110.175 133.674 111.306 132.625 111.65C131.575 111.995 130.445 111.424 130.1 110.375L107.1 40.3746C106.756 39.3252 107.327 38.195 108.376 37.8502Z" fill="#3D3D3D"/>
<path d="M124.129 99.6656C123.782 98.6171 124.35 97.4854 125.398 97.138L129.195 95.8795C130.244 95.5321 131.375 96.1003 131.723 97.1488L134.869 106.641C135.216 107.69 134.648 108.821 133.6 109.169L129.803 110.427C128.754 110.775 127.623 110.206 127.275 109.158L124.129 99.6656Z" fill="#3D3D3D"/>
<path fill-rule="evenodd" clip-rule="evenodd" d="M236.122 37.8502C235.072 37.5054 233.942 38.0766 233.597 39.126L210.597 109.126C210.253 110.175 210.824 111.306 211.873 111.65C212.923 111.995 214.053 111.424 214.398 110.375L237.398 40.3746C237.742 39.3252 237.171 38.195 236.122 37.8502Z" fill="#3D3D3D"/>
<path d="M220.369 99.6656C220.716 98.6171 220.148 97.4854 219.1 97.138L215.303 95.8795C214.254 95.5321 213.123 96.1003 212.775 97.1488L209.629 106.641C209.282 107.69 209.85 108.821 210.898 109.169L214.695 110.427C215.744 110.775 216.875 110.206 217.223 109.158L220.369 99.6656Z" fill="#3D3D3D"/>
<rect x="96.5" y="108.25" width="151" height="32" rx="8" fill="url(#paint0_linear_25_6187)"/>
<rect x="123.5" y="114.25" width="97" height="19" rx="4" fill="#3D3D3D"/>
<circle cx="135.5" cy="124.25" r="3" fill="#E7E7E7"/>
<circle cx="158.5" cy="124.25" r="3" fill="#E7E7E7"/>
<circle cx="181.5" cy="124.25" r="3" fill="#E7E7E7"/>
<circle cx="204.5" cy="124.25" r="4" fill="#D0141A"/>
<path fill-rule="evenodd" clip-rule="evenodd" d="M158.365 50.0817C165.104 47.2428 172.52 46.4997 179.674 47.9464C186.828 49.3932 193.4 52.9647 198.556 58.2091C198.871 58.5519 199.25 58.8269 199.671 59.0176C200.092 59.2083 200.546 59.3109 201.007 59.3191C201.468 59.3274 201.926 59.2412 202.353 59.0657C202.78 58.8902 203.169 58.629 203.495 58.2977C203.821 57.9664 204.078 57.5717 204.25 57.1373C204.423 56.7028 204.508 56.2374 204.499 55.7689C204.491 55.3005 204.39 54.8384 204.203 54.4104C204.015 53.9824 203.745 53.5972 203.408 53.2778C199.346 49.1477 194.524 45.8714 189.217 43.6361C183.91 41.4008 178.222 40.2503 172.477 40.2503C166.732 40.2503 161.044 41.4008 155.737 43.6361C150.43 45.8714 145.608 49.1477 141.547 53.2778C141.219 53.5998 140.958 53.9849 140.778 54.4107C140.598 54.8365 140.504 55.2944 140.5 55.7577C140.496 56.221 140.583 56.6804 140.756 57.1091C140.929 57.5378 141.184 57.9273 141.506 58.2547C141.829 58.5822 142.212 58.8411 142.634 59.0163C143.056 59.1915 143.508 59.2796 143.964 59.2754C144.42 59.2711 144.87 59.1747 145.289 58.9916C145.707 58.8085 146.086 58.5425 146.402 58.2091C149.826 54.7276 153.891 51.9659 158.365 50.0817ZM172.479 60.4515C169.146 60.4515 165.845 61.1214 162.767 62.4228C159.689 63.7242 156.894 65.6314 154.544 68.0346C153.902 68.691 153.03 69.0613 152.119 69.0639C151.208 69.0665 150.334 68.7013 149.688 68.0486C149.043 67.3959 148.678 66.5091 148.676 65.5835C148.673 64.6578 149.033 63.769 149.675 63.1126C152.663 60.0571 156.217 57.6324 160.13 55.9778C164.044 54.3233 168.241 53.4715 172.479 53.4715C176.718 53.4715 180.915 54.3233 184.829 55.9778C188.742 57.6324 192.296 60.0571 195.284 63.1126C195.926 63.769 196.286 64.6578 196.283 65.5835C196.28 66.5091 195.916 67.3959 195.27 68.0486C194.625 68.7013 193.75 69.0665 192.84 69.0639C191.929 69.0613 191.057 68.691 190.415 68.0346C188.064 65.6314 185.27 63.7242 182.192 62.4228C179.114 61.1214 175.813 60.4515 172.479 60.4515ZM167.994 74.1244C170.195 73.1803 172.624 72.9328 174.965 73.4142C177.305 73.8956 179.449 75.0835 181.115 76.8227C181.751 77.4858 182.619 77.8653 183.53 77.8775C184.44 77.8897 185.319 77.5337 185.971 76.8878C186.623 76.2419 186.997 75.359 187.009 74.4333C187.021 73.5076 186.67 72.615 186.035 71.9518C184.289 70.1295 182.202 68.6811 179.897 67.6921C177.591 66.7032 175.114 66.1937 172.612 66.1937C170.11 66.1937 167.633 66.7032 165.328 67.6921C163.022 68.6811 160.935 70.1295 159.189 71.9518C158.553 72.6144 158.202 73.5066 158.213 74.4323C158.224 75.358 158.597 76.2412 159.249 76.8878C159.9 77.5343 160.778 77.8912 161.689 77.8798C162.599 77.8685 163.468 77.4899 164.104 76.8273C165.212 75.6736 166.535 74.7524 167.994 74.129V74.1244Z" fill="#E7E7E7"/>
<defs>
<linearGradient id="paint0_linear_25_6187" x1="90" y1="124.25" x2="258" y2="124.25" gradientUnits="userSpaceOnUse">
<stop stop-color="#275494"/>
<stop offset="0.485" stop-color="#146DCC"/>
<stop offset="1" stop-color="#2C518E"/>
</linearGradient>
</defs>
</svg>
