<svg width="342" height="190" viewBox="0 0 342 190" fill="none" xmlns="http://www.w3.org/2000/svg">
<path d="M284.245 27.9154V162.084C284.245 169.765 278.011 176 270.329 176H204.46C196.779 176 190.545 169.765 190.545 162.084V27.9154C190.545 20.2347 196.779 14 204.46 14H270.332C278.012 14 284.248 20.2347 284.248 27.9154H284.245Z" fill="#121212"/>
<path d="M204.461 15.3193H270.333C277.286 15.3193 282.929 20.963 282.929 27.9154V162.084C282.929 169.037 277.286 174.681 270.333 174.681H204.461C197.509 174.681 191.865 169.037 191.865 162.084V27.9154C191.865 20.963 197.509 15.3193 204.461 15.3193Z" fill="#3D3D3D"/>
<path d="M284.096 51.1999V35.8967C284.969 35.8967 285.679 36.6065 285.679 37.4798V49.6168C285.679 50.4902 284.969 51.1999 284.096 51.1999Z" fill="#121212"/>
<path d="M190.714 67.1603V51.8572C189.841 51.8572 189.131 52.5669 189.131 53.4402V65.5772C189.131 66.4505 189.841 67.1603 190.714 67.1603Z" fill="#121212"/>
<path d="M190.714 83.1211V67.8179C189.841 67.8179 189.131 68.5276 189.131 69.401V81.5379C189.131 82.4113 189.841 83.1211 190.714 83.1211Z" fill="#121212"/>
<path d="M191.341 45.921V35.5466C190.459 35.5466 189.744 36.0278 189.744 36.6199V44.8478C189.744 45.4399 190.459 45.921 191.341 45.921Z" fill="#121212"/>
<path d="M277.839 30.8958H196.987C195.986 30.8958 195.174 31.7075 195.174 32.7089V145.365C195.174 146.366 195.986 147.178 196.987 147.178H277.839C278.84 147.178 279.652 146.366 279.652 145.365V32.7089C279.652 31.7075 278.84 30.8958 277.839 30.8958Z" fill="url(#paint0_linear_509_12474)"/>
<path d="M257.523 76.4709C255.721 75.5118 254.768 74.0094 254.258 73.2054C252.922 71.0988 253.16 69.8348 252.461 67.8167C251.092 63.8472 247.727 61.6075 246.745 60.9532C242.344 58.0261 237.714 58.342 236.29 58.5028C232.874 58.8853 227.076 60.6594 226.655 63.8915C226.438 65.516 227.63 67.0793 228.944 68.7924C229.31 69.2692 230.757 71.1098 232.863 72.385C238.602 75.8611 243.592 71.7363 246.585 74.5083C249.335 77.0585 248.149 83.3288 247.4 87.2484C246.519 91.8832 244.739 95.326 246.419 97.0502C247.505 98.159 245.21 96.5734 245.798 97.976C246.186 98.9074 243.115 97.5713 242.366 98.2699C241.418 99.1569 243.896 104.529 244.118 104.973C245.105 106.93 242.926 106.525 245.793 106.53C248.259 106.536 249.878 107.112 253.06 105.743C255.328 104.768 254.591 103.603 256.708 102.439C258.821 101.275 259.353 101.413 259.813 100.643C260.517 99.4563 259.58 98.5859 260.301 97.0502C260.822 95.9469 261.426 96.1299 262.097 95.0876C263.173 93.4188 263.045 90.6912 261.77 89.0447C260.561 87.4812 258.887 87.6254 258.832 86.755C258.748 85.5741 261.859 85.4133 263.079 82.9962C263.877 81.4161 263.75 79.1042 262.591 77.9345C261.355 76.6816 259.958 77.7571 257.529 76.4654L257.523 76.4709Z" fill="#121212"/>
<path d="M229.19 63.5812C226.889 63.2154 212.364 70.6886 216.316 80.6789C216.805 81.9152 217.786 82.0593 218.44 83.7835C218.711 84.5043 219.172 85.7018 218.767 86.8882C218.107 88.8285 215.873 88.5569 215.008 90.647C214.387 92.1494 214.975 93.6684 215.008 93.7516C215.828 95.7808 217.952 95.7142 218.113 97.1834C218.234 98.27 217.104 98.6414 216.971 100.615C216.943 101.059 216.899 101.652 217.131 102.251C217.481 103.149 218.396 103.925 221.218 104.701C225.043 105.754 229.566 106.642 230.853 105.715C232.833 104.291 229.473 100.022 229.062 96.6955C227.155 81.261 228.269 78.9214 229.55 76.9312C231.33 74.1647 233.464 73.8598 233.636 71.3761C233.824 68.6873 232.028 64.0359 229.195 63.5868L229.19 63.5812Z" fill="#121212"/>
<path d="M227.626 108.815C226.872 109.624 225.946 110.062 224.477 110.573C224.477 114.947 230.587 119.67 237.1 119.67C243.387 119.67 250.506 117.064 250.495 111.082C249.264 110.666 247.862 110.001 246.896 108.648C246.159 107.617 245.982 106.608 245.755 105.217C245.239 102.068 245.937 100.67 245.755 99.3344C245.006 93.8569 229.455 89.7211 227.46 92.9643C226.961 93.7683 227.72 94.3614 228.441 97.5381C229.017 100.1 230.326 105.898 227.626 108.809V108.815Z" fill="#D8A790"/>
<path d="M245.762 99.3397C245.014 93.8623 229.463 89.7265 227.467 92.9697C226.968 93.7736 227.728 94.3668 228.448 97.5435C228.715 98.7299 229.142 100.609 229.252 102.577C231.171 106.081 233.787 108.366 236.41 108.687C239.342 109.042 242.896 107.007 245.574 103.154C245.546 101.374 245.901 100.343 245.768 99.3453L245.762 99.3397Z" fill="#C36252"/>
<path d="M250.173 78.7553C249.962 78.029 249.419 76.4212 248.211 74.8356C246.154 72.1246 243.415 71.1101 242.002 70.589C238.464 69.2806 235.465 69.6132 234.162 69.774C232.594 69.968 231.046 70.1732 229.428 71.2432C228.768 71.6756 227.62 72.5682 226.489 74.5086C225.547 76.1219 224.022 79.4705 224.2 85.6187C224.339 90.4808 224.477 95.2153 227.792 99.6671C228.779 100.992 232.249 105.655 237.427 105.71C239.756 105.738 241.53 104.823 242.328 104.402C245.899 102.517 247.435 99.2347 248.538 96.8896C249.846 94.0955 250.234 91.7116 250.501 90.0261C250.96 87.0657 250.833 84.8537 250.661 82.0207C250.583 80.6735 250.473 79.7864 250.173 78.7553Z" fill="#D8A790"/>
<path d="M248.898 70.1729C244.529 66.3475 238.381 66.0371 234.112 67.8832C232.982 68.3711 229.926 69.6961 229.699 71.9691C229.46 74.3586 232.46 76.6871 234.844 77.5242C237.832 78.572 241.758 77.94 242.278 77.8513C243.321 77.6739 244.285 77.4078 245.627 77.6906C245.721 77.7127 247.501 78.1008 248.892 79.4036C252.025 82.342 250.805 87.6531 251.504 87.7362C252.175 87.8139 254.337 83.1125 253.3 77.9345C252.956 76.2214 251.942 72.8507 248.887 70.1729H248.898Z" fill="#121212"/>
<path d="M253.064 85.5745C251.761 85.131 250.464 86.578 250.391 86.6612C248.373 89.0617 248.44 94.7221 249.976 95.2599C250.319 95.3818 251.156 94.4671 251.661 94.1622C253.191 93.2363 254.721 91.4623 254.777 89.1782C254.804 87.9085 254.316 86.0014 253.064 85.5745Z" fill="#D8A790"/>
<path d="M221.418 85.5743C220.165 86.0011 219.671 87.9083 219.705 89.1778C219.76 91.4565 221.29 93.236 222.821 94.1619C223.325 94.4668 224.168 95.3816 224.506 95.2596C226.036 94.7218 226.102 89.0614 224.09 86.6609C224.018 86.5778 222.726 85.1307 221.418 85.5743Z" fill="#D8A790"/>
<path d="M206.558 57.5661H218.062V55.7422H204.734V69.0699H206.558V57.5661Z" fill="#1A42D6"/>
<path d="M268.71 57.5661H257.207V55.7422H270.534V69.0699H268.71V57.5661Z" fill="#1A42D6"/>
<path d="M206.558 120.508H218.062V122.332H204.734V109.003H206.558V120.508Z" fill="#1A42D6"/>
<path d="M268.71 120.508H257.207V122.332H270.534V109.003H268.71V120.508Z" fill="#1A42D6"/>
<path d="M237.852 159.104C244.439 159.104 249.779 153.765 249.779 147.178C249.779 140.591 244.439 135.252 237.852 135.252C231.265 135.252 225.926 140.591 225.926 147.178C225.926 153.765 231.265 159.104 237.852 159.104Z" fill="#AFB904"/>
<path fill-rule="evenodd" clip-rule="evenodd" d="M243.081 144.863C243.176 144.755 243.248 144.628 243.294 144.491C243.34 144.353 243.357 144.208 243.346 144.065C243.335 143.921 243.295 143.78 243.228 143.651C243.161 143.523 243.07 143.409 242.959 143.317C242.848 143.224 242.72 143.155 242.581 143.113C242.443 143.07 242.297 143.056 242.154 143.071C242.01 143.086 241.87 143.129 241.744 143.199C241.617 143.268 241.505 143.362 241.415 143.476L236.754 149.069L234.342 146.656C234.137 146.458 233.863 146.349 233.578 146.351C233.294 146.354 233.023 146.468 232.821 146.668C232.62 146.87 232.507 147.142 232.504 147.426C232.501 147.71 232.611 147.984 232.808 148.189L236.06 151.441C236.167 151.547 236.295 151.631 236.436 151.685C236.575 151.74 236.726 151.764 236.876 151.758C237.027 151.75 237.174 151.712 237.309 151.645C237.444 151.579 237.563 151.484 237.66 151.369L243.081 144.863Z" fill="white"/>
<path d="M126.705 76.4714C124.903 75.5123 123.95 74.0099 123.44 73.2059C122.104 71.0993 122.342 69.8352 121.643 67.8172C120.274 63.8477 116.909 61.608 115.928 60.9537C111.526 58.0265 106.896 58.3425 105.472 58.5033C102.056 58.8858 96.2574 60.6599 95.8361 63.892C95.6198 65.5165 96.8119 67.0798 98.1257 68.7929C98.4917 69.2697 99.9386 71.1104 102.045 72.3855C107.783 75.8616 112.773 71.7368 115.767 74.5088C118.517 77.059 117.33 83.3293 116.582 87.2489C115.7 91.8837 113.921 95.3265 115.6 97.0507C116.687 98.1594 114.392 96.5739 114.979 97.9765C115.368 98.9079 112.296 97.5718 111.548 98.2704C110.6 99.1573 113.078 104.529 113.3 104.973C114.287 106.93 112.108 106.526 114.974 106.531C117.441 106.536 119.06 107.113 122.242 105.743C124.51 104.768 123.772 103.604 125.89 102.439C128.002 101.275 128.535 101.414 128.995 100.643C129.699 99.4568 128.762 98.5863 129.483 97.0507C130.004 95.9474 130.608 96.1304 131.279 95.088C132.354 93.4193 132.227 90.6917 130.952 89.0452C129.743 87.4817 128.069 87.6259 128.013 86.7555C127.93 85.5746 131.04 85.4138 132.26 82.9967C133.058 81.4166 132.931 79.1048 131.772 77.935C130.536 76.6821 129.139 77.7576 126.711 76.4658L126.705 76.4714Z" fill="#BCE494" fill-opacity="0.6"/>
<path d="M151.435 27.9154V162.084C151.435 169.765 145.2 176 137.519 176H71.6497C63.9691 176 57.7344 169.765 57.7344 162.084V27.9154C57.7344 20.2347 63.9691 14 71.6497 14H137.522C145.202 14 151.437 20.2347 151.437 27.9154H151.435Z" fill="#121212"/>
<path d="M71.6489 15.3193H137.521C144.473 15.3193 150.117 20.963 150.117 27.9154V162.084C150.117 169.037 144.473 174.681 137.521 174.681H71.6489C64.6964 174.681 59.0527 169.037 59.0527 162.084V27.9154C59.0527 20.963 64.6964 15.3193 71.6489 15.3193Z" fill="#3D3D3D"/>
<path d="M151.287 51.1999V35.8967C152.16 35.8967 152.87 36.6065 152.87 37.4798V49.6168C152.87 50.4902 152.16 51.1999 151.287 51.1999Z" fill="#121212"/>
<path d="M57.9053 67.1603V51.8572C57.032 51.8572 56.3223 52.5669 56.3223 53.4402V65.5772C56.3223 66.4505 57.032 67.1603 57.9053 67.1603Z" fill="#121212"/>
<path d="M57.9053 83.1207V67.8176C57.032 67.8176 56.3223 68.5274 56.3223 69.4006V81.5377C56.3223 82.411 57.032 83.1207 57.9053 83.1207Z" fill="#121212"/>
<path d="M58.5316 45.921V35.5466C57.6511 35.5466 56.9355 36.0278 56.9355 36.6199V44.8478C56.9355 45.4399 57.6511 45.921 58.5316 45.921Z" fill="#121212"/>
<path d="M145.029 30.8958H64.1764C63.175 30.8958 62.3633 31.7075 62.3633 32.7089V145.365C62.3633 146.366 63.175 147.178 64.1764 147.178H145.029C146.03 147.178 146.842 146.366 146.842 145.365V32.7089C146.842 31.7075 146.03 30.8958 145.029 30.8958Z" fill="url(#paint1_linear_509_12474)"/>
<g opacity="0.2">
<path d="M127.941 76.4712C126.14 75.512 125.186 74.0096 124.676 73.2057C123.34 71.099 123.578 69.835 122.88 67.817C121.51 63.8475 118.145 61.6077 117.164 60.9535C112.762 58.0263 108.133 58.3423 106.708 58.5031C103.293 58.8855 97.4938 60.6597 97.0724 63.8918C96.8562 65.5162 98.0481 67.0796 99.3621 68.7927C99.7279 69.2694 101.175 71.1101 103.282 72.3852C109.02 75.8613 114.009 71.7365 117.003 74.5086C119.753 77.0588 118.566 83.329 117.818 87.2487C116.937 91.8834 115.157 95.3262 116.837 97.0505C117.923 98.1593 115.628 96.5736 116.216 97.9762C116.604 98.9076 113.533 97.5715 112.784 98.2701C111.836 99.1572 114.314 104.53 114.536 104.973C115.523 106.93 113.344 106.525 116.21 106.53C118.677 106.536 120.296 107.112 123.478 105.743C125.746 104.768 125.009 103.603 127.126 102.439C129.239 101.275 129.771 101.413 130.231 100.643C130.935 99.4565 129.998 98.5862 130.719 97.0505C131.24 95.9472 131.844 96.1301 132.515 95.0879C133.591 93.4191 133.463 90.6915 132.188 89.0449C130.979 87.4815 129.305 87.6256 129.25 86.7552C129.167 85.5744 132.277 85.4135 133.496 82.9964C134.295 81.4164 134.167 79.1045 133.009 77.9348C131.772 76.6818 130.375 77.7574 127.947 76.4656L127.941 76.4712Z" fill="#121212"/>
<path d="M99.6056 63.5812C97.3049 63.2154 82.7796 70.6886 86.7325 80.6789C87.2204 81.9152 88.2017 82.0593 88.8559 83.7835C89.1275 84.5043 89.5876 85.7018 89.1829 86.8882C88.5233 88.8285 86.289 88.5569 85.4241 90.647C84.8032 92.1494 85.3909 93.6684 85.4241 93.7516C86.2446 95.7808 88.368 95.7142 88.5288 97.1834C88.6507 98.27 87.5198 98.6414 87.3867 100.615C87.359 101.059 87.3146 101.652 87.5474 102.251C87.8967 103.149 88.8115 103.925 91.6333 104.701C95.4587 105.754 99.9827 106.642 101.269 105.715C103.248 104.291 99.8884 100.022 99.4782 96.6955C97.571 81.261 98.6853 78.9214 99.966 76.9312C101.746 74.1647 103.88 73.8598 104.052 71.3761C104.24 68.6873 102.444 64.0359 99.6112 63.5868L99.6056 63.5812Z" fill="#121212"/>
<path d="M98.0415 108.815C97.2875 109.624 96.3617 110.062 94.8926 110.573C94.8926 114.947 101.002 119.67 107.516 119.67C113.803 119.67 120.922 117.064 120.91 111.082C119.68 110.666 118.277 110.001 117.312 108.648C116.575 107.617 116.398 106.608 116.17 105.217C115.655 102.068 116.353 100.67 116.17 99.3344C115.422 93.8569 99.871 89.7211 97.8752 92.9643C97.3763 93.7683 98.1358 94.3614 98.8565 97.5381C99.433 100.1 100.741 105.898 98.0415 108.809V108.815Z" fill="#D8A790"/>
<path d="M116.178 99.3397C115.43 93.8623 99.879 89.7265 97.8831 92.9697C97.3841 93.7736 98.1436 94.3668 98.8644 97.5435C99.1305 98.7299 99.5574 100.609 99.6683 102.577C101.587 106.081 104.203 108.366 106.826 108.687C109.758 109.042 113.312 107.007 115.99 103.154C115.962 101.374 116.317 100.343 116.184 99.3453L116.178 99.3397Z" fill="#C36252"/>
<path d="M120.591 78.7553C120.381 78.029 119.837 76.4212 118.629 74.8356C116.572 72.1246 113.833 71.1101 112.419 70.589C108.882 69.2806 105.883 69.6132 104.58 69.774C103.011 69.968 101.465 70.1732 99.8457 71.2432C99.186 71.6756 98.0384 72.5682 96.9074 74.5086C95.9649 76.1219 94.4403 79.4705 94.6177 85.6187C94.7563 90.4808 94.8949 95.2153 98.2102 99.6671C99.1971 100.992 102.668 105.655 107.846 105.71C110.174 105.738 111.948 104.823 112.747 104.402C116.317 102.517 117.853 99.2347 118.956 96.8896C120.264 94.0955 120.652 91.7116 120.918 90.0261C121.379 87.0657 121.251 84.8537 121.079 82.0207C121.002 80.6735 120.891 79.7864 120.591 78.7553Z" fill="#D8A790"/>
<path d="M119.314 70.1729C114.945 66.3475 108.797 66.0371 104.528 67.8832C103.397 68.3711 100.342 69.6961 100.115 71.9691C99.8766 74.3586 102.876 76.6871 105.26 77.5242C108.248 78.572 112.173 77.94 112.694 77.8513C113.737 77.6739 114.701 77.4078 116.043 77.6906C116.137 77.7127 117.917 78.1008 119.308 79.4036C122.441 82.342 121.221 87.6531 121.92 87.7362C122.59 87.8139 124.752 83.1125 123.716 77.9345C123.372 76.2214 122.357 72.8507 119.303 70.1729H119.314Z" fill="#121212"/>
<path d="M123.48 85.5745C122.177 85.131 120.88 86.578 120.807 86.6612C118.789 89.0617 118.856 94.7221 120.392 95.2599C120.735 95.3818 121.573 94.4671 122.077 94.1622C123.607 93.2363 125.137 91.4623 125.193 89.1782C125.22 87.9085 124.733 86.0014 123.48 85.5745Z" fill="#D8A790"/>
<path d="M91.8338 85.5743C90.5809 86.0011 90.0874 87.9083 90.1207 89.1778C90.1762 91.4565 91.7063 93.236 93.2364 94.1619C93.7409 94.4668 94.5837 95.3816 94.9218 95.2596C96.452 94.7218 96.5185 89.0614 94.506 86.6609C94.434 86.5778 93.1421 85.1307 91.8338 85.5743Z" fill="#D8A790"/>
</g>
<path d="M124.633 76.4709C122.831 75.5118 121.877 74.0094 121.367 73.2054C120.031 71.0988 120.27 69.8348 119.571 67.8167C118.202 63.8472 114.836 61.6075 113.855 60.9532C109.453 58.0261 104.824 58.342 103.399 58.5028C99.9841 58.8853 94.1851 60.6594 93.7638 63.8915C93.5476 65.516 94.7395 67.0793 96.0535 68.7924C96.4193 69.2692 97.8663 71.1098 99.973 72.385C105.711 75.8611 110.701 71.7363 113.694 74.5083C116.444 77.0585 115.258 83.3288 114.509 87.2484C113.628 91.8832 111.848 95.326 113.528 97.0502C114.615 98.159 112.319 96.5734 112.907 97.976C113.295 98.9074 110.224 97.5713 109.475 98.2699C108.527 99.1569 111.006 104.529 111.227 104.973C112.214 106.93 110.035 106.525 112.902 106.53C115.369 106.536 116.987 107.112 120.17 105.743C122.437 104.768 121.7 103.603 123.818 102.439C125.93 101.275 126.462 101.413 126.922 100.643C127.626 99.4563 126.689 98.5859 127.41 97.0502C127.931 95.9469 128.536 96.1299 129.207 95.0876C130.282 93.4188 130.154 90.6912 128.879 89.0447C127.671 87.4812 125.997 87.6254 125.941 86.755C125.858 85.5741 128.968 85.4133 130.188 82.9962C130.986 81.4161 130.859 79.1042 129.7 77.9345C128.464 76.6816 127.067 77.7571 124.638 76.4654L124.633 76.4709Z" fill="#121212"/>
<path d="M96.299 63.5812C93.9983 63.2154 79.473 70.6886 83.4259 80.6789C83.9138 81.9152 84.895 82.0593 85.5492 83.7835C85.8209 84.5043 86.281 85.7018 85.8763 86.8882C85.2166 88.8285 82.9824 88.5569 82.1175 90.647C81.4965 92.1494 82.0843 93.6684 82.1175 93.7516C82.938 95.7808 85.0614 95.7142 85.2221 97.1834C85.3441 98.27 84.2131 98.6414 84.08 100.615C84.0524 101.059 84.008 101.652 84.2408 102.251C84.5901 103.149 85.5048 103.925 88.3267 104.701C92.1521 105.754 96.676 106.642 97.9622 105.715C99.9415 104.291 96.5818 100.022 96.1715 96.6955C94.2644 81.261 95.3787 78.9214 96.6594 76.9312C98.439 74.1647 100.573 73.8598 100.745 71.3761C100.934 68.6873 99.1375 64.0359 96.3046 63.5868L96.299 63.5812Z" fill="#121212"/>
<path d="M94.7349 108.815C93.9809 109.624 93.0551 110.062 91.5859 110.573C91.5859 114.947 97.6954 119.67 104.21 119.67C110.496 119.67 117.615 117.064 117.604 111.082C116.373 110.666 114.97 110.001 114.006 108.648C113.269 107.617 113.091 106.608 112.864 105.217C112.348 102.068 113.047 100.67 112.864 99.3344C112.115 93.8569 96.5644 89.7211 94.5686 92.9643C94.0696 93.7683 94.8292 94.3614 95.5499 97.5381C96.1265 100.1 97.4349 105.898 94.7349 108.809V108.815Z" fill="#D8A790"/>
<path d="M112.872 99.3397C112.123 93.8623 96.5723 89.7265 94.5765 92.9697C94.0775 93.7736 94.837 94.3668 95.5577 97.5435C95.8239 98.7299 96.2508 100.609 96.3616 102.577C98.2798 106.081 100.897 108.366 103.519 108.687C106.452 109.042 110.005 107.007 112.683 103.154C112.655 101.374 113.01 100.343 112.877 99.3453L112.872 99.3397Z" fill="#C36252"/>
<path d="M117.283 78.7553C117.072 78.029 116.529 76.4212 115.32 74.8356C113.263 72.1246 110.525 71.1101 109.111 70.589C105.574 69.2806 102.574 69.6132 101.272 69.774C99.7027 69.968 98.1559 70.1732 96.5371 71.2432C95.8773 71.6756 94.7297 72.5682 93.5988 74.5086C92.6563 76.1219 91.1317 79.4705 91.3091 85.6187C91.4477 90.4808 91.5863 95.2153 94.9016 99.6671C95.8885 100.992 99.359 105.655 104.537 105.71C106.866 105.738 108.64 104.823 109.438 104.402C113.008 102.517 114.544 99.2347 115.647 96.8896C116.956 94.0955 117.344 91.7116 117.61 90.0261C118.07 87.0657 117.942 84.8537 117.771 82.0207C117.693 80.6735 117.582 79.7864 117.283 78.7553Z" fill="#D8A790"/>
<path d="M116.007 70.1729C111.638 66.3475 105.49 66.0371 101.221 67.8832C100.09 68.3711 97.0356 69.6961 96.8083 71.9691C96.5699 74.3586 99.5692 76.6871 101.953 77.5242C104.941 78.572 108.866 77.94 109.388 77.8513C110.43 77.6739 111.395 77.4078 112.736 77.6906C112.83 77.7127 114.61 78.1008 116.002 79.4036C119.134 82.342 117.914 87.6531 118.613 87.7362C119.284 87.8139 121.446 83.1125 120.409 77.9345C120.065 76.2214 119.051 72.8507 115.996 70.1729H116.007Z" fill="#121212"/>
<path d="M120.173 85.5745C118.87 85.131 117.573 86.578 117.501 86.6612C115.483 89.0617 115.549 94.7221 117.085 95.2599C117.429 95.3818 118.266 94.4671 118.77 94.1622C120.301 93.2363 121.831 91.4623 121.886 89.1782C121.914 87.9085 121.426 86.0014 120.173 85.5745Z" fill="#D8A790"/>
<path d="M88.5272 85.5743C87.2742 86.0011 86.7808 87.9083 86.8141 89.1778C86.8695 91.4565 88.3996 93.236 89.9298 94.1619C90.4343 94.4668 91.2769 95.3816 91.6152 95.2596C93.1453 94.7218 93.2118 89.0614 91.1993 86.6609C91.1272 86.5778 89.8355 85.1307 88.5272 85.5743Z" fill="#D8A790"/>
<g opacity="0.4">
<path d="M122.648 76.4712C120.847 75.512 119.893 74.0096 119.383 73.2057C118.047 71.099 118.285 69.835 117.587 67.817C116.217 63.8475 112.852 61.6077 111.871 60.9535C107.469 58.0263 102.84 58.3423 101.415 58.5031C97.9997 58.8855 92.2007 60.6597 91.7794 63.8918C91.5632 65.5162 92.7551 67.0796 94.0691 68.7927C94.435 69.2694 95.8819 71.1101 97.9886 72.3852C103.727 75.8613 108.716 71.7365 111.71 74.5086C114.46 77.0588 113.273 83.329 112.525 87.2487C111.643 91.8834 109.864 95.3262 111.544 97.0505C112.63 98.1593 110.335 96.5736 110.923 97.9762C111.311 98.9076 108.239 97.5715 107.491 98.2701C106.543 99.1572 109.021 104.53 109.243 104.973C110.23 106.93 108.051 106.525 110.917 106.53C113.384 106.536 115.003 107.112 118.185 105.743C120.453 104.768 119.716 103.603 121.833 102.439C123.946 101.275 124.478 101.413 124.938 100.643C125.642 99.4565 124.705 98.5862 125.426 97.0505C125.947 95.9472 126.551 96.1301 127.222 95.0879C128.298 93.4191 128.17 90.6915 126.895 89.0449C125.686 87.4815 124.012 87.6256 123.957 86.7552C123.874 85.5744 126.984 85.4135 128.203 82.9964C129.002 81.4164 128.874 79.1045 127.716 77.9348C126.479 76.6818 125.082 77.7574 122.654 76.4656L122.648 76.4712Z" fill="#121212"/>
<path d="M94.3127 63.5812C92.012 63.2154 77.4867 70.6886 81.4395 80.6789C81.9274 81.9152 82.9087 82.0593 83.5628 83.7835C83.8345 84.5043 84.2947 85.7018 83.89 86.8882C83.2302 88.8285 80.996 88.5569 80.1312 90.647C79.5102 92.1494 80.0979 93.6684 80.1312 93.7516C80.9516 95.7808 83.075 95.7142 83.2358 97.1834C83.3578 98.27 82.2268 98.6414 82.0937 100.615C82.066 101.059 82.0216 101.652 82.2545 102.251C82.6038 103.149 83.5185 103.925 86.3404 104.701C90.1658 105.754 94.6897 106.642 95.9759 105.715C97.9551 104.291 94.5955 100.022 94.1852 96.6955C92.278 81.261 93.3924 78.9214 94.6731 76.9312C96.4527 74.1647 98.5871 73.8598 98.759 71.3761C98.9474 68.6873 97.1512 64.0359 94.3182 63.5868L94.3127 63.5812Z" fill="#121212"/>
<path d="M92.7486 108.815C91.9946 109.624 91.0688 110.062 89.5996 110.573C89.5996 114.947 95.7091 119.67 102.223 119.67C108.51 119.67 115.629 117.064 115.618 111.082C114.387 110.666 112.984 110.001 112.019 108.648C111.282 107.617 111.105 106.608 110.877 105.217C110.362 102.068 111.06 100.67 110.877 99.3344C110.129 93.8569 94.5781 89.7211 92.5822 92.9643C92.0833 93.7683 92.8429 94.3614 93.5636 97.5381C94.1402 100.1 95.4485 105.898 92.7486 108.809V108.815Z" fill="#D8A790"/>
<path d="M110.885 99.34C110.137 93.8625 94.586 89.7268 92.5901 92.9699C92.0912 93.7739 92.8507 94.367 93.5714 97.5438C93.8375 98.7302 94.2644 100.61 94.3753 102.578C96.2935 106.082 98.9102 108.366 101.533 108.687C104.465 109.042 108.019 107.007 110.697 103.154C110.669 101.375 111.024 100.343 110.891 99.3455L110.885 99.34Z" fill="#C36252"/>
<path d="M115.298 78.7553C115.088 78.029 114.544 76.4212 113.336 74.8356C111.279 72.1246 108.54 71.1101 107.126 70.589C103.589 69.2806 100.59 69.6132 99.2873 69.774C97.7183 69.968 96.1716 70.1732 94.5527 71.2432C93.8929 71.6756 92.7454 72.5682 91.6143 74.5086C90.6719 76.1219 89.1473 79.4705 89.3248 85.6187C89.4634 90.4808 89.6019 95.2153 92.9172 99.6671C93.904 100.992 97.3746 105.655 102.553 105.71C104.881 105.738 106.655 104.823 107.454 104.402C111.024 102.517 112.56 99.2347 113.663 96.8896C114.971 94.0955 115.359 91.7116 115.625 90.0261C116.086 87.0657 115.958 84.8537 115.786 82.0207C115.709 80.6735 115.598 79.7864 115.298 78.7553Z" fill="#D8A790"/>
<path d="M114.021 70.1732C109.652 66.3478 103.504 66.0373 99.2349 67.8835C98.104 68.3713 95.0492 69.6963 94.822 71.9694C94.5835 74.3589 97.5829 76.6873 99.9668 77.5245C102.955 78.5722 106.88 77.9403 107.401 77.8515C108.444 77.6741 109.408 77.4081 110.75 77.6908C110.844 77.7129 112.624 78.101 114.015 79.4038C117.148 82.3422 115.928 87.6533 116.626 87.7365C117.297 87.8142 119.459 83.1128 118.423 77.9348C118.079 76.2217 117.064 72.8509 114.01 70.1732H114.021Z" fill="#121212"/>
<path d="M118.187 85.5745C116.884 85.131 115.587 86.578 115.514 86.6612C113.496 89.0617 113.563 94.7221 115.099 95.2599C115.442 95.3818 116.28 94.4671 116.784 94.1622C118.314 93.2363 119.844 91.4623 119.9 89.1782C119.928 87.9085 119.44 86.0014 118.187 85.5745Z" fill="#D8A790"/>
<path d="M86.5408 85.5743C85.2878 86.0011 84.7945 87.9083 84.8277 89.1778C84.8831 91.4565 86.4133 93.236 87.9435 94.1619C88.448 94.4668 89.2906 95.3816 89.6288 95.2596C91.1589 94.7218 91.2254 89.0614 89.213 86.6609C89.1409 86.5778 87.8492 85.1307 86.5408 85.5743Z" fill="#D8A790"/>
</g>
<g opacity="0.4">
<path d="M73.6697 57.5661H85.1734V55.7422H71.8457V69.0699H73.6697V57.5661Z" fill="#3D3D3D"/>
<path d="M135.822 57.5661H124.318V55.7422H137.646V69.0699H135.822V57.5661Z" fill="#3D3D3D"/>
<path d="M73.6697 120.507H85.1734V122.331H71.8457V109.003H73.6697V120.507Z" fill="#3D3D3D"/>
<path d="M135.822 120.507H124.318V122.331H137.646V109.003H135.822V120.507Z" fill="#3D3D3D"/>
</g>
<path d="M104.03 159.104C110.617 159.104 115.956 153.764 115.956 147.178C115.956 140.591 110.617 135.252 104.03 135.252C97.4431 135.252 92.1035 140.591 92.1035 147.178C92.1035 153.764 97.4431 159.104 104.03 159.104Z" fill="#D0141A"/>
<path d="M100.892 152.293C101.821 151.364 102.751 150.434 103.68 149.505C105.162 148.023 106.643 146.542 108.125 145.06C108.465 144.72 108.805 144.38 109.146 144.039C109.664 143.521 109.702 142.573 109.146 142.063C108.587 141.549 107.721 141.51 107.169 142.063C106.239 142.992 105.31 143.921 104.38 144.85C102.899 146.332 101.417 147.814 99.9356 149.295L98.9147 150.316C98.3967 150.834 98.3584 151.783 98.9147 152.293C99.473 152.805 100.339 152.846 100.892 152.293Z" fill="white"/>
<path d="M98.9151 144.039C99.8445 144.969 100.774 145.898 101.703 146.827C103.185 148.308 104.667 149.791 106.148 151.272C106.488 151.612 106.829 151.953 107.169 152.293C107.687 152.81 108.635 152.849 109.146 152.293C109.658 151.735 109.699 150.868 109.146 150.315C108.217 149.386 107.287 148.457 106.358 147.528C104.876 146.046 103.395 144.564 101.913 143.083C101.573 142.742 101.232 142.402 100.892 142.062C100.374 141.544 99.4259 141.506 98.9151 142.062C98.4028 142.62 98.3625 143.486 98.9151 144.039Z" fill="white"/>
<defs>
<linearGradient id="paint0_linear_509_12474" x1="237.413" y1="30.8958" x2="237.083" y2="191.235" gradientUnits="userSpaceOnUse">
<stop offset="0.281366" stop-color="white"/>
<stop offset="0.296483" stop-color="white"/>
<stop offset="0.668353" stop-color="#CACED2"/>
<stop offset="0.801162" stop-color="#898B8E"/>
</linearGradient>
<linearGradient id="paint1_linear_509_12474" x1="104.602" y1="30.8958" x2="104.272" y2="191.235" gradientUnits="userSpaceOnUse">
<stop offset="0.281366" stop-color="#A1A1A1"/>
<stop offset="0.864578" stop-color="#616263"/>
</linearGradient>
</defs>
</svg>
