<svg width="96" height="162" viewBox="0 0 96 162" fill="none" xmlns="http://www.w3.org/2000/svg">
<path d="M94.5755 14.2951L94.5755 147.705C94.5755 155.342 88.3761 161.541 80.7389 161.541H15.2422C7.60505 161.541 1.40562 155.342 1.40562 147.705L1.40562 14.2951C1.40562 6.65799 7.60505 0.458557 15.2422 0.458557L80.7416 0.458557C88.3787 0.458557 94.5781 6.65799 94.5781 14.2951H94.5755Z" fill="#121212"/>
<path d="M14.9057 1.77032H80.405C87.318 1.77032 92.9298 7.38208 92.9298 14.2951V147.705C92.9298 154.618 87.318 160.23 80.405 160.23H14.9057C7.99262 160.23 2.38086 154.618 2.38086 147.705V14.2951C2.38086 7.38208 7.99262 1.77032 14.9057 1.77032Z" fill="#3D3D3D"/>
<path d="M94.4277 37.4474V22.2309C95.2961 22.2309 96.0019 22.9366 96.0019 23.805V35.8733C96.0019 36.7417 95.2961 37.4474 94.4277 37.4474Z" fill="#121212"/>
<path d="M1.57422 53.3184V38.1018C0.705826 38.1018 9.2864e-05 38.8075 9.2864e-05 39.6759V51.7442C9.2864e-05 52.6126 0.705826 53.3184 1.57422 53.3184Z" fill="#121212"/>
<path d="M1.57422 69.1877V53.9712C0.705826 53.9712 9.2864e-05 54.6769 9.2864e-05 55.5453V67.6136C9.2864e-05 68.482 0.705826 69.1877 1.57422 69.1877Z" fill="#121212"/>
<path d="M2.20117 32.1982V21.8826C1.32566 21.8826 0.614148 22.361 0.614148 22.9497V31.1311C0.614148 31.7198 1.32566 32.1982 2.20117 32.1982Z" fill="#121212"/>
<rect x="5.55469" y="17.1216" width="84.9058" height="107.124" rx="2" fill="url(#paint0_linear_1844_16714)"/>
<rect x="9.98242" y="22.1833" width="36.2078" height="42.5441" rx="4" fill="url(#paint1_linear_1844_16714)"/>
<rect x="9.98242" y="68.348" width="36.2078" height="42.5441" rx="4" fill="url(#paint2_linear_1844_16714)"/>
<rect x="49.8105" y="22.1833" width="36.2078" height="42.5441" rx="4" fill="url(#paint3_linear_1844_16714)"/>
<rect x="49.8105" y="68.348" width="36.2078" height="42.5441" rx="4" fill="url(#paint4_linear_1844_16714)"/>
<path d="M47.6114 148.052C52.4321 148.052 56.3401 144.144 56.3401 139.323C56.3401 134.502 52.4321 130.594 47.6114 130.594C42.7908 130.594 38.8828 134.502 38.8828 139.323C38.8828 144.144 42.7908 148.052 47.6114 148.052Z" fill="#D0141A"/>
<path d="M45.3122 143.069C45.9924 142.388 46.6726 141.708 47.3528 141.028C48.4372 139.944 49.5215 138.859 50.6059 137.775C50.8549 137.526 51.104 137.277 51.353 137.028C51.7321 136.649 51.7602 135.955 51.353 135.581C50.9445 135.206 50.3106 135.176 49.9061 135.581C49.2259 136.261 48.5457 136.941 47.8655 137.622C46.7811 138.706 45.6968 139.79 44.6124 140.875L43.8653 141.622C43.4862 142.001 43.4581 142.695 43.8653 143.069C44.2738 143.444 44.9077 143.473 45.3122 143.069Z" fill="white"/>
<path d="M43.8666 137.027C44.5468 137.707 45.227 138.387 45.9072 139.067C46.9916 140.152 48.0759 141.236 49.1603 142.32C49.4094 142.569 49.6584 142.818 49.9075 143.067C50.2865 143.447 50.9805 143.475 51.3544 143.067C51.7293 142.659 51.7588 142.025 51.3544 141.621C50.6742 140.94 49.994 140.26 49.3138 139.58C48.2294 138.496 47.145 137.411 46.0607 136.327C45.8116 136.078 45.5626 135.829 45.3135 135.58C44.9344 135.201 44.2404 135.173 43.8666 135.58C43.4916 135.988 43.4622 136.622 43.8666 137.027Z" fill="white"/>
<path d="M41 30.0001C42.6569 30.0001 44 28.6569 44 27.0001C44 25.3432 42.6569 24.0001 41 24.0001C39.3431 24.0001 38 25.3432 38 27.0001C38 28.6569 39.3431 30.0001 41 30.0001Z" fill="#475569"/>
<path d="M40.208 28.2871C40.4418 28.0533 40.6756 27.8195 40.9094 27.5858C41.2821 27.2131 41.6548 26.8404 42.0275 26.4677C42.1131 26.3821 42.1987 26.2965 42.2843 26.2109C42.4146 26.0806 42.4242 25.8421 42.2843 25.7136C42.1439 25.5847 41.926 25.5746 41.787 25.7136C41.5532 25.9474 41.3194 26.1812 41.0856 26.4149C40.7129 26.7876 40.3402 27.1603 39.9675 27.533L39.7107 27.7898C39.5805 27.9201 39.5708 28.1586 39.7107 28.2871C39.8512 28.416 40.069 28.4261 40.208 28.2871Z" fill="white"/>
<path d="M39.7118 26.2105C39.9456 26.4443 40.1794 26.6781 40.4132 26.9118C40.7859 27.2845 41.1586 27.6572 41.5312 28.0299C41.6168 28.1155 41.7024 28.2011 41.788 28.2867C41.9183 28.417 42.1569 28.4267 42.2853 28.2867C42.4142 28.1464 42.4243 27.9284 42.2853 27.7894C42.0516 27.5556 41.8178 27.3218 41.584 27.0881C41.2113 26.7154 40.8386 26.3427 40.4659 25.97C40.3803 25.8844 40.2947 25.7988 40.2091 25.7132C40.0788 25.5829 39.8403 25.5732 39.7118 25.7132C39.5829 25.8536 39.5728 26.0715 39.7118 26.2105Z" fill="white"/>
<path d="M41 76.0001C42.6569 76.0001 44 74.6569 44 73.0001C44 71.3432 42.6569 70.0001 41 70.0001C39.3431 70.0001 38 71.3432 38 73.0001C38 74.6569 39.3431 76.0001 41 76.0001Z" fill="#475569"/>
<path d="M40.208 74.2871C40.4418 74.0533 40.6756 73.8195 40.9094 73.5858C41.2821 73.2131 41.6548 72.8404 42.0275 72.4677C42.1131 72.3821 42.1987 72.2965 42.2843 72.2109C42.4146 72.0806 42.4242 71.8421 42.2843 71.7136C42.1439 71.5847 41.926 71.5746 41.787 71.7136C41.5532 71.9474 41.3194 72.1812 41.0856 72.4149C40.7129 72.7876 40.3402 73.1603 39.9675 73.533L39.7107 73.7898C39.5805 73.9201 39.5708 74.1586 39.7107 74.2871C39.8512 74.416 40.069 74.4261 40.208 74.2871Z" fill="white"/>
<path d="M39.7118 72.2105C39.9456 72.4443 40.1794 72.6781 40.4132 72.9118C40.7859 73.2845 41.1586 73.6572 41.5312 74.0299C41.6168 74.1155 41.7024 74.2011 41.788 74.2867C41.9183 74.417 42.1569 74.4267 42.2853 74.2867C42.4142 74.1464 42.4243 73.9284 42.2853 73.7894C42.0516 73.5556 41.8178 73.3218 41.584 73.0881C41.2113 72.7154 40.8386 72.3427 40.4659 71.97C40.3803 71.8844 40.2947 71.7988 40.2091 71.7132C40.0788 71.5829 39.8403 71.5732 39.7118 71.7132C39.5829 71.8536 39.5728 72.0715 39.7118 72.2105Z" fill="white"/>
<path d="M81 30.0001C82.6569 30.0001 84 28.6569 84 27.0001C84 25.3432 82.6569 24.0001 81 24.0001C79.3431 24.0001 78 25.3432 78 27.0001C78 28.6569 79.3431 30.0001 81 30.0001Z" fill="#475569"/>
<path d="M80.208 28.2871C80.4418 28.0533 80.6756 27.8195 80.9094 27.5858C81.2821 27.2131 81.6548 26.8404 82.0275 26.4677C82.1131 26.3821 82.1987 26.2965 82.2843 26.2109C82.4146 26.0806 82.4242 25.8421 82.2843 25.7136C82.1439 25.5847 81.926 25.5746 81.787 25.7136C81.5532 25.9474 81.3194 26.1812 81.0856 26.4149C80.7129 26.7876 80.3402 27.1603 79.9675 27.533L79.7107 27.7898C79.5805 27.9201 79.5708 28.1586 79.7107 28.2871C79.8512 28.416 80.069 28.4261 80.208 28.2871Z" fill="white"/>
<path d="M79.7118 26.2105C79.9456 26.4443 80.1794 26.6781 80.4132 26.9118C80.7859 27.2845 81.1586 27.6572 81.5312 28.0299C81.6168 28.1155 81.7024 28.2011 81.788 28.2867C81.9183 28.417 82.1569 28.4267 82.2853 28.2867C82.4142 28.1464 82.4243 27.9284 82.2853 27.7894C82.0516 27.5556 81.8178 27.3218 81.584 27.0881C81.2113 26.7154 80.8386 26.3427 80.4659 25.97C80.3803 25.8844 80.2947 25.7988 80.2091 25.7132C80.0788 25.5829 79.8403 25.5732 79.7118 25.7132C79.5829 25.8536 79.5728 26.0715 79.7118 26.2105Z" fill="white"/>
<path d="M81 76.0001C82.6569 76.0001 84 74.6569 84 73.0001C84 71.3432 82.6569 70.0001 81 70.0001C79.3431 70.0001 78 71.3432 78 73.0001C78 74.6569 79.3431 76.0001 81 76.0001Z" fill="#475569"/>
<path d="M80.208 74.2871C80.4418 74.0533 80.6756 73.8195 80.9094 73.5858C81.2821 73.2131 81.6548 72.8404 82.0275 72.4677C82.1131 72.3821 82.1987 72.2965 82.2843 72.2109C82.4146 72.0806 82.4242 71.8421 82.2843 71.7136C82.1439 71.5847 81.926 71.5746 81.787 71.7136C81.5532 71.9474 81.3194 72.1812 81.0856 72.4149C80.7129 72.7876 80.3402 73.1603 79.9675 73.533L79.7107 73.7898C79.5805 73.9201 79.5708 74.1586 79.7107 74.2871C79.8512 74.416 80.069 74.4261 80.208 74.2871Z" fill="white"/>
<path d="M79.7118 72.2105C79.9456 72.4443 80.1794 72.6781 80.4132 72.9118C80.7859 73.2845 81.1586 73.6572 81.5312 74.0299C81.6168 74.1155 81.7024 74.2011 81.788 74.2867C81.9183 74.417 82.1569 74.4267 82.2853 74.2867C82.4142 74.1464 82.4243 73.9284 82.2853 73.7894C82.0516 73.5556 81.8178 73.3218 81.584 73.0881C81.2113 72.7154 80.8386 72.3427 80.4659 71.97C80.3803 71.8844 80.2947 71.7988 80.2091 71.7132C80.0788 71.5829 79.8403 71.5732 79.7118 71.7132C79.5829 71.8536 79.5728 72.0715 79.7118 72.2105Z" fill="white"/>
<defs>
<linearGradient id="paint0_linear_1844_16714" x1="48.0076" y1="17.1216" x2="47.7286" y2="164.833" gradientUnits="userSpaceOnUse">
<stop stop-color="#9399AE"/>
<stop offset="0.5" stop-color="#606E7F"/>
<stop offset="1" stop-color="#253A5A"/>
</linearGradient>
<linearGradient id="paint1_linear_1844_16714" x1="28.0863" y1="22.1833" x2="28.1817" y2="78.4316" gradientUnits="userSpaceOnUse">
<stop offset="0.384658" stop-color="#F8F8F8"/>
<stop offset="0.644696" stop-color="#DADADA"/>
<stop offset="1" stop-color="#898989"/>
</linearGradient>
<linearGradient id="paint2_linear_1844_16714" x1="28.0863" y1="68.348" x2="28.1817" y2="124.596" gradientUnits="userSpaceOnUse">
<stop offset="0.384658" stop-color="#F8F8F8"/>
<stop offset="0.644696" stop-color="#DADADA"/>
<stop offset="1" stop-color="#898989"/>
</linearGradient>
<linearGradient id="paint3_linear_1844_16714" x1="67.9144" y1="22.1833" x2="68.0099" y2="78.4316" gradientUnits="userSpaceOnUse">
<stop offset="0.384658" stop-color="#F8F8F8"/>
<stop offset="0.644696" stop-color="#DADADA"/>
<stop offset="1" stop-color="#898989"/>
</linearGradient>
<linearGradient id="paint4_linear_1844_16714" x1="67.9144" y1="68.348" x2="68.0099" y2="124.596" gradientUnits="userSpaceOnUse">
<stop offset="0.384658" stop-color="#F8F8F8"/>
<stop offset="0.644696" stop-color="#DADADA"/>
<stop offset="1" stop-color="#898989"/>
</linearGradient>
</defs>
</svg>
